<?xml version="1.0" encoding="UTF-8" ?>
<svg
    version="1.1"
    xmlns="http://www.w3.org/2000/svg"
    width="1031"
    height="1155"
>
<path
        d="M0 0 C72.3009375 -0.061875 72.3009375 -0.061875 146.0625 -0.125 C161.23355713 -0.14320801 176.40461426 -0.16141602 192.03540039 -0.18017578 C210.68444824 -0.18920898 210.68444824 -0.18920898 219.43870544 -0.19088745 C225.5006926 -0.19273679 231.56264201 -0.20000537 237.62461853 -0.21115112 C244.6449332 -0.22403943 251.66521225 -0.22963585 258.68553879 -0.2268899 C262.26338836 -0.22570425 265.84115873 -0.22734732 269.41899312 -0.23843026 C335.75438045 -0.41332246 398.9534824 9.07920027 453.80078125 48.98828125 C458.23027079 52.20277721 462.79656162 55.19099003 467.375 58.1875 C474.29368186 62.75122974 480.7573939 67.53143685 487 73 C487.79019531 73.680625 488.58039062 74.36125 489.39453125 75.0625 C491.97502697 77.33033469 494.49459996 79.6493876 497 82 C497.78697266 82.73597412 497.78697266 82.73597412 498.58984375 83.48681641 C535.39617182 118.19994395 558.62328307 169.20838927 560.22853088 219.85481262 C560.6464144 236.39441253 560.20361883 252.72019291 557 269 C556.75056641 270.28076416 556.75056641 270.28076416 556.49609375 271.58740234 C546.41766854 321.50360276 519.50038886 368.65164706 479 400 C478.43893555 400.44279297 477.87787109 400.88558594 477.29980469 401.34179688 C466.86344176 409.56233559 455.88359402 416.64857866 444.50488281 423.49121094 C442.12866029 424.92250287 439.76222897 426.36860818 437.3984375 427.8203125 C436.03678001 428.65156882 434.67482166 429.48233261 433.3125 430.3125 C432.6949585 430.69172607 432.07741699 431.07095215 431.44116211 431.46166992 C427.2307335 434 427.2307335 434 425 434 C428.22403346 439.87490542 431.88614535 445.35975701 435.6875 450.875 C437.04057431 452.84881458 438.39343073 454.82277854 439.74609375 456.796875 C440.44718262 457.81845703 441.14827148 458.84003906 441.87060547 459.89257812 C445.34377188 464.96096405 448.79676014 470.04302574 452.25 475.125 C452.95278076 476.15866699 453.65556152 477.19233398 454.37963867 478.25732422 C460.15991156 486.76006201 465.93286873 495.26775562 471.70489502 503.77609253 C480.12698845 516.190599 488.56211108 528.59622421 497 541 C506.24285664 554.58708588 515.48004317 568.17797452 524.70544434 581.7769165 C530.34073227 590.0835515 535.9801824 598.38733614 541.625 606.6875 C542.31343994 607.69989746 543.00187988 608.71229492 543.71118164 609.75537109 C546.92526049 614.48131463 550.14034097 619.20657101 553.35783386 623.93019104 C567.12337642 644.13990646 567.12337642 644.13990646 573.0625 653 C573.68016235 653.91676514 573.68016235 653.91676514 574.31030273 654.85205078 C577 658.88211883 577 658.88211883 577 660 C555.77295052 660.30393767 534.54626069 660.53304869 513.31747532 660.67355824 C503.46001431 660.74053986 493.60390663 660.83182154 483.74731445 660.98071289 C475.15426739 661.11045534 466.56220042 661.19419456 457.9682011 661.22315043 C453.41880009 661.24007372 448.87220231 661.27971198 444.32370186 661.37449074 C440.03736539 661.4630788 435.75497085 661.48989007 431.46780586 661.47039986 C429.89912434 661.47396192 428.33030434 661.49963895 426.76241684 661.54967117 C415.24489114 661.89901832 415.24489114 661.89901832 411.44613528 658.68554091 C408.26666291 655.12607215 404 649.91740598 404 645 C402.61349243 645.1707605 402.61349243 645.1707605 401.19897461 645.3449707 C391.41962421 646.04765172 391.41962421 646.04765172 387.71533203 643.31396484 C385.7339954 640.70763185 384.14424135 638.05454927 382.5625 635.1875 C381.22493549 632.98559301 379.88493817 630.78516265 378.54296875 628.5859375 C377.81915885 627.36445913 377.09570022 626.14277256 376.37255859 624.92089844 C372.4246581 618.32090449 368.10676868 611.95391915 363.85519409 605.54751587 C361.99315931 602.73594047 360.14216509 599.91740861 358.3045826 597.08978939 C357.37411729 595.67917727 356.42673482 594.279461 355.45682907 592.89567089 C352.71104882 588.9218638 350.58090003 585.14620589 348.83769226 580.63504028 C346.04037402 574.20002932 342.90716563 568.98544345 337 565 C325.15149672 560.59217583 310.64904141 562.08010003 298.24785495 562.27795911 C293.08486255 562.34273893 287.92248608 562.30171117 282.7592926 562.27708435 C274.09231603 562.25266993 265.42914708 562.31428265 256.76293945 562.42700195 C246.76988255 562.55585762 236.78428253 562.54516845 226.79092258 562.46039921 C217.14179445 562.38205638 207.49541489 562.40586023 197.84630013 562.47450066 C193.75609146 562.5016697 189.66832038 562.49314679 185.57821465 562.45498848 C163.80168707 561.06723214 163.80168707 561.06723214 144.67059326 568.98442078 C141.63620507 572.65616044 139.57351124 576.4910842 137.84882259 580.91676617 C136.71241924 583.7057988 135.07740862 585.98917907 133.2734375 588.38671875 C132.30540964 589.81904234 131.33918754 591.25258843 130.375 592.6875 C125.21236833 600.29869862 120.0040783 607.90761657 114.32554817 615.14771271 C112.94560199 616.9683686 112.94560199 616.9683686 111.9963665 619.04956818 C110.5731544 621.62083939 109.33217895 623.18730194 107 625 C101.74446613 626.19781029 96.52637483 626.01193109 91.17236328 625.90820312 C89.54588432 625.90594529 87.9193972 625.90721563 86.29292297 625.91174316 C81.88567684 625.91403615 77.48017682 625.86704588 73.07333612 625.8111515 C68.46498658 625.76109869 63.85659579 625.7564384 59.24801636 625.74694824 C50.52487783 625.72209537 41.80254257 625.65646328 33.07975757 625.57615232 C23.14763573 625.48669447 13.21547527 625.44273756 3.28305078 625.40258884 C-17.14508095 625.31899579 -37.57248985 625.17830638 -58 625 C-57.29423828 623.89591797 -57.29423828 623.89591797 -56.57421875 622.76953125 C-55.64029297 621.30580078 -55.64029297 621.30580078 -54.6875 619.8125 C-54.07261719 618.84957031 -53.45773438 617.88664063 -52.82421875 616.89453125 C-51.17992897 614.28549758 -49.58667902 611.64446503 -48 609 C-55.26 609 -62.52 609 -70 609 C-68.33889378 604.84723445 -67.00020871 602.40413864 -64.37890625 598.94140625 C-60.0212941 593.07082959 -55.96500763 587.03761614 -51.9375 580.9375 C-50.34825579 578.54040167 -48.75646096 576.14500386 -47.1640625 573.75 C-46.74890884 573.1254039 -46.33375519 572.5008078 -45.90602112 571.85728455 C-40.9151351 564.35682571 -35.86483804 556.89664163 -30.8125 549.4375 C-30.32995758 548.72493042 -29.84741516 548.01236084 -29.35025024 547.27819824 C-26.88297835 543.63496084 -24.41507466 539.99215211 -21.94677734 536.34960938 C-17.64340391 529.99845558 -13.34502449 523.64392372 -9.04672241 517.28933716 C-7.62018453 515.18038094 -6.19352277 513.07150855 -4.7668457 510.96264648 C2.32599424 500.47772593 9.41369618 489.98933881 16.5 479.5 C27.37928782 463.39618357 38.26652966 447.29776245 49.15722656 431.20166016 C53.4589314 424.84380034 57.7599525 418.48547799 62.06103516 412.12719727 C63.49769839 410.00340243 64.9343911 407.87962755 66.37109375 405.75585938 C70.70225684 399.35341059 75.03330555 392.95088455 79.36383057 386.54800415 C88.63954194 372.83345499 97.91664386 359.11986039 107.20379639 345.41305542 C118.27258105 329.07673428 129.33669675 312.73726984 140.38616943 296.38787842 C141.48672777 294.75945499 142.5873574 293.13107973 143.68804932 291.50274658 C158.56041621 269.50030131 173.39771089 247.47596423 188.0871582 225.35083008 C193.77278405 216.79423547 199.52366076 208.28685024 205.3401947 199.81864929 C208.55443832 195.1330553 211.72512091 190.42290245 214.84765625 185.67578125 C215.55470703 184.60908203 216.26175781 183.54238281 216.99023438 182.44335938 C218.41662838 180.28830793 219.83272757 178.12641861 221.24023438 175.95898438 C222.2834082 174.39567383 222.2834082 174.39567383 223.34765625 172.80078125 C223.95617432 171.87434814 224.56469238 170.94791504 225.19165039 169.9934082 C225.78840576 169.3355835 226.38516113 168.67775879 227 168 C228.32 168 229.64 168 231 168 C232.86574122 170.35011635 234.4322257 172.58805613 236 175.125 C236.42539062 175.79015625 236.85078125 176.4553125 237.2890625 177.140625 C238.92088673 179.69347885 240.53874831 182.25444231 242.1328125 184.83105469 C243.03683134 186.25488437 244.01205889 187.63306424 245 189 C245.66 189 246.32 189 247 189 C248.35712166 187.44144019 248.35712166 187.44144019 249.625 185.5 C250.07101562 184.8503125 250.51703125 184.200625 250.9765625 183.53125 C251.31429688 183.0259375 251.65203125 182.520625 252 182 C255.75617245 185.41628678 258.31986597 189.27622025 261.0625 193.5 C262.13157482 195.1245131 263.20197913 196.74815175 264.2734375 198.37109375 C264.86350586 199.26554199 265.45357422 200.15999023 266.06152344 201.08154297 C269.7289546 206.60301301 273.46111847 212.08073491 277.1875 217.5625 C278.0090594 218.77187348 278.83059245 219.98126486 279.65209961 221.19067383 C281.70510406 224.2125306 283.75902105 227.23376583 285.81329346 230.25476074 C287.67665453 232.99512728 289.5394406 235.73588465 291.40234375 238.4765625 C294.90010837 243.62172885 298.39912814 248.76604043 301.8984375 253.91015625 C304.75842647 258.11508427 307.6173216 262.32075497 310.47558594 266.52685547 C311.89411837 268.61276198 313.31401238 270.69774328 314.73535156 272.78173828 C318.28533139 277.9890932 321.81124382 283.21024879 325.296875 288.4609375 C326.32627197 290.00068237 326.32627197 290.00068237 327.37646484 291.5715332 C328.68204261 293.52543416 329.97961911 295.48471179 331.26806641 297.44995117 C331.84733887 298.31338135 332.42661133 299.17681152 333.0234375 300.06640625 C333.78019775 301.2102478 333.78019775 301.2102478 334.55224609 302.37719727 C335.03000488 302.91272217 335.50776367 303.44824707 336 304 C339.95805475 304 342.66253248 302.33123715 346.0625 300.5 C346.7342627 300.1383374 347.40602539 299.7766748 348.09814453 299.40405273 C353.93066806 296.18044841 359.04899471 292.47215158 364 288 C364.75667969 287.33613281 365.51335937 286.67226563 366.29296875 285.98828125 C381.70707774 271.63538458 391.45068114 249.67496636 392.203125 228.72265625 C392.62653664 203.69581225 385.94812001 179.98724293 369 161 C368.48050781 160.4121875 367.96101563 159.824375 367.42578125 159.21875 C356.15155342 148.08651497 336.08586087 147.77096482 321.33203125 146.88720703 C320.64550791 146.84518732 319.95898457 146.80316761 319.25165749 146.75987458 C303.79652331 145.8300811 288.36722458 145.73536733 272.88917923 145.79721212 C269.10703597 145.81005366 265.32488631 145.8109154 261.54272461 145.81326294 C254.43931648 145.81938269 247.33597282 145.83565887 240.23259258 145.85596192 C232.12076856 145.87862441 224.00894081 145.88938914 215.89709282 145.89935279 C199.26469132 145.92003837 182.63235399 145.95502071 166 146 C166.06439774 146.94212341 166.12879547 147.88424683 166.19514465 148.85491943 C171.75663312 232.92508765 171.75663312 232.92508765 144.7109375 264.33984375 C143.416604 265.77866023 142.11892925 267.21447825 140.81787109 268.6472168 C129.10648873 281.68274112 120.02944157 297.36155932 110.46777344 311.99365234 C101.89817185 325.10237252 93.31354091 338.17777583 84.25878906 350.95751953 C75.77895656 363.02186566 67.79233652 375.42658502 59.7265625 387.76953125 C53.22291956 397.70451594 46.61193308 407.54209969 39.75180054 417.23527527 C35.71613048 422.93901976 31.81007889 428.71538267 28.02481079 434.5884552 C25.21121852 438.89439074 25.21121852 438.89439074 23 440 C22.67 424.49 22.34 408.98 22 393 C16.95827956 400.58225597 16.95827956 400.58225597 11.91918945 408.16625977 C4.34651157 419.54011746 4.34651157 419.54011746 1 424 C0.67 424 0.34 424 0 424 C0 284.08 0 144.16 0 0 Z M244 425 C242.5345719 426.64409757 242.5345719 426.64409757 241.06640625 428.796875 C240.49986328 429.5909375 239.93332031 430.385 239.34960938 431.203125 C238.75986328 432.04359375 238.17011719 432.8840625 237.5625 433.75 C236.39731123 435.39074987 235.23195227 437.03137889 234.06640625 438.671875 C233.55021729 439.4050293 233.03402832 440.13818359 232.50219727 440.89355469 C231.47297248 442.33677775 230.40587791 443.7535207 229.30834961 445.14550781 C227.80784126 446.89411067 227.80784126 446.89411067 228 449 C238.89 449 249.78 449 261 449 C258.78013069 443.45032671 255.86679432 439.08432341 252.5 434.1875 C251.90574219 433.30384766 251.31148438 432.42019531 250.69921875 431.50976562 C250.12816406 430.67509766 249.55710937 429.84042969 248.96875 428.98046875 C248.44732422 428.21629639 247.92589844 427.45212402 247.38867188 426.66479492 C246.93041016 426.1154126 246.47214844 425.56603027 246 425 C245.34 425 244.68 425 244 425 Z "
        fill="#DEE3E9"
        transform="translate(239,255)"
    />
<path
        d="M0 0 C4.56821659 4.1576434 7.68082688 8.82323812 10.96875 14.02734375 C12.12708347 15.83480646 13.28595362 17.64192532 14.4453125 19.44873047 C15.03538086 20.37208191 15.62544922 21.29543335 16.23339844 22.24676514 C18.98862127 26.5407586 21.78947878 30.80434245 24.59375 35.06640625 C25.14843964 35.91029404 25.70312927 36.75418182 26.27462769 37.62364197 C28.01529799 40.2706673 29.75742544 42.91672792 31.5 45.5625 C32.1097467 46.48868134 32.71949341 47.41486267 33.34771729 48.36911011 C44.86693367 65.85688151 56.54762938 83.23287783 68.29974365 100.56480408 C70.41753151 103.69510746 72.52231351 106.83405465 74.62731934 109.97296143 C75.87843859 111.82049018 77.15296968 113.64849035 78.43847656 115.47216797 C79.10073242 116.43912598 79.76298828 117.40608398 80.4453125 118.40234375 C80.99977051 119.18988037 81.55422852 119.97741699 82.12548828 120.78881836 C83 123 83 123 82.3347168 125.53662109 C81.08148173 127.84961576 79.78028488 129.91163532 78.19921875 132.01171875 C77.36052246 133.13610352 77.36052246 133.13610352 76.50488281 134.28320312 C75.90514648 135.07662109 75.30541016 135.87003906 74.6875 136.6875 C73.42499505 138.37831949 72.163297 140.06974174 70.90234375 141.76171875 C70.25765137 142.62458496 69.61295898 143.48745117 68.94873047 144.37646484 C65.84387689 148.55646441 62.79458679 152.77599818 59.75 157 C59.20174561 157.75885498 58.65349121 158.51770996 58.08862305 159.29956055 C56.01463961 162.17554993 53.9672318 165.0491523 52 168 C52.69981491 167.9045137 53.39962982 167.8090274 54.12065125 167.71064758 C101.52167843 161.53936386 101.52167843 161.53936386 115.82232666 169.58856201 C126.89281831 178.29140341 132.79591431 192.36411176 138.79394531 204.73974609 C143.60379818 214.44785014 149.83200906 223.25948798 155.92749023 232.19128418 C159.00460647 236.72788007 161.99435662 241.32096532 164.9921875 245.91015625 C168.85412287 251.80329782 172.76491498 257.63367757 176.93017578 263.31811523 C178 265 178 265 178 267 C114.31 267 50.62 267 -15 267 C-15.66 268.65 -16.32 270.3 -17 272 C-18.22998047 273.95019531 -18.22998047 273.95019531 -19.6171875 275.828125 C-20.39461304 276.89075562 -20.39461304 276.89075562 -21.18774414 277.97485352 C-21.74453857 278.72565186 -22.30133301 279.4764502 -22.875 280.25 C-24.05939704 281.86790184 -25.24297232 283.48640552 -26.42578125 285.10546875 C-27.02471191 285.92321777 -27.62364258 286.7409668 -28.24072266 287.58349609 C-30.88577705 291.21668349 -33.47751811 294.88643478 -36.0625 298.5625 C-36.54630127 299.24948975 -37.03010254 299.93647949 -37.52856445 300.64428711 C-38.5115818 302.04060559 -39.49424641 303.43717247 -40.4765625 304.83398438 C-43.16904972 308.6621489 -45.86548942 312.48752157 -48.5625 316.3125 C-49.06338135 317.02414307 -49.5642627 317.73578613 -50.08032227 318.46899414 C-50.55010498 319.13535889 -51.0198877 319.80172363 -51.50390625 320.48828125 C-52.11987671 321.36286987 -52.11987671 321.36286987 -52.74829102 322.25512695 C-53.16135498 322.83093506 -53.57441895 323.40674316 -54 324 C-54.38496297 324.68606701 -54.76992594 325.37213402 -55.16655445 326.07899094 C-57 328 -57 328 -59.93039227 328.49219131 C-61.13701928 328.48850414 -62.3436463 328.48481697 -63.58683777 328.48101807 C-64.25910363 328.48443577 -64.93136949 328.48785347 -65.62400705 328.49137473 C-67.88152345 328.4979748 -70.13785644 328.47594454 -72.39526367 328.45410156 C-74.01144889 328.45297353 -75.62763616 328.45360607 -77.24382019 328.45587158 C-81.63624323 328.45702141 -86.02823123 328.43346885 -90.42055297 328.40557575 C-95.00896878 328.38060674 -99.59739405 328.37822366 -104.18586731 328.37347412 C-112.87694219 328.36103108 -121.56781632 328.32819155 -130.25880271 328.28807616 C-140.152247 328.24339972 -150.04570077 328.22138181 -159.93922079 328.20129442 C-180.292926 328.15946005 -200.64645036 328.08908224 -221 328 C-219.53288582 324.15988253 -217.86605613 321.2269235 -215.37890625 317.94140625 C-211.0212941 312.07082959 -206.96500763 306.03761614 -202.9375 299.9375 C-201.34825579 297.54040167 -199.75646096 295.14500386 -198.1640625 292.75 C-197.74890884 292.1254039 -197.33375519 291.5008078 -196.90602112 290.85728455 C-191.9151351 283.35682571 -186.86483804 275.89664163 -181.8125 268.4375 C-181.32995758 267.72493042 -180.84741516 267.01236084 -180.35025024 266.27819824 C-177.88297835 262.63496084 -175.41507466 258.99215211 -172.94677734 255.34960938 C-168.64340391 248.99845558 -164.34502449 242.64392372 -160.04672241 236.28933716 C-158.62018453 234.18038094 -157.19352277 232.07150855 -155.7668457 229.96264648 C-148.67400576 219.47772593 -141.58630382 208.98933881 -134.5 198.5 C-123.62071218 182.39618357 -112.73347034 166.29776245 -101.84277344 150.20166016 C-97.5410686 143.84380034 -93.2400475 137.48547799 -88.93896484 131.12719727 C-87.50230161 129.00340243 -86.0656089 126.87962755 -84.62890625 124.75585938 C-80.29774316 118.35341059 -75.96669445 111.95088455 -71.63616943 105.54800415 C-61.0767384 89.93541875 -50.51392165 74.32514837 -39.93994141 58.72241211 C-35.25238003 51.80492623 -30.56907859 44.88458691 -25.890625 37.9609375 C-24.85612715 36.43033357 -23.82162198 34.89973458 -22.78710938 33.36914062 C-20.82407698 30.46472722 -18.86196766 27.55969333 -16.90039062 24.65429688 C-11.32189586 16.39740374 -5.69248948 8.17880395 0 0 Z "
        fill="#1DD0A1"
        transform="translate(390,536)"
    />
<path
        d="M0 0 C44.36302662 22.29887581 77.15398169 67.06925985 93.07275391 113.15673828 C103.90191041 146.36273001 106.76185688 182.6383198 100 217 C99.83371094 217.85384277 99.66742187 218.70768555 99.49609375 219.58740234 C89.41766854 269.50360276 62.50038886 316.65164706 22 348 C21.43893555 348.44279297 20.87787109 348.88558594 20.29980469 349.34179688 C9.86344176 357.56233559 -1.11640598 364.64857866 -12.49511719 371.49121094 C-14.87133971 372.92250287 -17.23777103 374.36860818 -19.6015625 375.8203125 C-20.96321999 376.65156882 -22.32517834 377.48233261 -23.6875 378.3125 C-24.61381226 378.88133911 -24.61381226 378.88133911 -25.55883789 379.46166992 C-29.7692665 382 -29.7692665 382 -32 382 C-28.77596654 387.87490542 -25.11385465 393.35975701 -21.3125 398.875 C-19.95942569 400.84881458 -18.60656927 402.82277854 -17.25390625 404.796875 C-16.55281738 405.81845703 -15.85172852 406.84003906 -15.12939453 407.89257812 C-11.65622812 412.96096405 -8.20323986 418.04302574 -4.75 423.125 C-4.04721924 424.15866699 -3.34443848 425.19233398 -2.62036133 426.25732422 C3.15991156 434.76006201 8.93286873 443.26775562 14.70489502 451.77609253 C23.12698845 464.190599 31.56211108 476.59622421 40 489 C49.24285664 502.58708588 58.48004317 516.17797452 67.70544434 529.7769165 C73.34073227 538.0835515 78.9801824 546.38733614 84.625 554.6875 C85.31343994 555.69989746 86.00187988 556.71229492 86.71118164 557.75537109 C89.92526049 562.48131463 93.14034097 567.20657101 96.35783386 571.93019104 C110.12337642 592.13990646 110.12337642 592.13990646 116.0625 601 C116.4742749 601.61117676 116.8860498 602.22235352 117.31030273 602.85205078 C120 606.88211883 120 606.88211883 120 608 C98.79037419 608.35079583 77.58122821 608.61510231 56.36928749 608.77718258 C46.51945508 608.85444965 36.67142752 608.95973241 26.82275391 609.1315918 C18.23592006 609.28136032 9.65039326 609.37793106 1.0622896 609.41132742 C-3.48364294 609.43084499 -8.02583741 609.47650596 -12.57056808 609.58595085 C-16.85478897 609.68828008 -21.13375955 609.71908642 -25.41908646 609.69661522 C-26.98580818 609.70072088 -28.55271674 609.73029276 -30.11837769 609.78808212 C-41.63719571 610.19216302 -41.63719571 610.19216302 -45.65745592 606.46224523 C-54 596.42594349 -54 596.42594349 -54 592 C-4.83 591.67 44.34 591.34 95 591 C89.72 583.41 84.44 575.82 79 568 C74.0625 560.625 74.0625 560.625 71.71875 557.08203125 C68.21132065 551.79533464 64.6331616 546.55659306 61.0625 541.3125 C59.97787476 539.71946045 59.97787476 539.71946045 58.87133789 538.09423828 C57.74304119 536.43711009 56.6147432 534.77998278 55.48634338 533.1229248 C51.55046144 527.3420185 47.62406874 521.55468678 43.69839478 515.7668457 C34.476441 502.1705169 25.24055112 488.58369675 16 475 C6.75714336 461.41291412 -2.48004317 447.82202548 -11.70544434 434.2230835 C-18.71823234 423.88595947 -25.73901762 413.55429954 -32.765625 403.2265625 C-35.35851391 399.41513753 -37.94926432 395.60227689 -40.53738403 391.78761292 C-42.10507034 389.47709118 -43.67345568 387.16704437 -45.24188232 384.85702515 C-46.34763896 383.2278135 -47.45239668 381.59792403 -48.55712891 379.96801758 C-49.22663574 378.98212646 -49.89614258 377.99623535 -50.5859375 376.98046875 C-51.1742334 376.11317139 -51.7625293 375.24587402 -52.36865234 374.35229492 C-53.43962571 372.80802249 -54.55415458 371.29289623 -55.71337891 369.8137207 C-57 368 -57 368 -57 366 C-55.92105469 365.41734375 -54.84210937 364.8346875 -53.73046875 364.234375 C7.04998175 331.11629462 50.80470454 286.28977645 71.23828125 219.015625 C72.32559918 215.03578951 73.21359324 211.04728305 74 207 C74.18046875 206.10410156 74.3609375 205.20820312 74.546875 204.28515625 C84.90337212 151.03316766 75.18853016 95.08541241 44.90991211 49.68603516 C33.67841018 33.26762143 19.5927443 14.8112966 2.6796875 3.84765625 C1.79539062 3.23792969 0.91109375 2.62820313 0 2 C0 1.34 0 0.68 0 0 Z "
        fill="#1ED0A1"
        transform="translate(696,307)"
    />
<path
        d="M0 0 C340.23 0 680.46 0 1031 0 C1031 381.15 1031 762.3 1031 1155 C690.77 1155 350.54 1155 0 1155 C0 773.85 0 392.7 0 0 Z M3 3 C3 381.84 3 760.68 3 1151 C341.25 1151 679.5 1151 1028 1151 C1028 772.16 1028 393.32 1028 3 C689.75 3 351.5 3 3 3 Z "
        fill="#F9F9F9"
        transform="translate(0,0)"
    />
<path
        d="M0 0 C4.45511873 0.00008201 8.91013626 -0.00700654 13.36523438 -0.02050781 C102.51810888 -0.28590768 102.51810888 -0.28590768 133.77001953 25.18530273 C131.77001953 26.18530273 131.77001953 26.18530273 128.93408203 25.25952148 C126.59993544 24.34492762 124.26658244 23.4283055 121.93408203 22.50952148 C112.11311978 19.08988901 101.39343476 18.68896603 91.10205078 18.07250977 C90.41552744 18.03049006 89.7290041 17.98847035 89.02167702 17.94517732 C73.56654284 17.01538384 58.13724411 16.92067006 42.65919876 16.98251486 C38.8770555 16.99535639 35.09490584 16.99621814 31.31274414 16.99856567 C24.20933601 17.00468543 17.10599235 17.02096161 10.00261211 17.04126465 C1.89078809 17.06392714 -6.22103966 17.07469187 -14.33288765 17.08465552 C-30.96528915 17.10534111 -47.59762648 17.14032345 -64.22998047 17.18530273 C-64.16558273 18.12742615 -64.101185 19.06954956 -64.03483582 20.04022217 C-58.47334735 104.11039039 -58.47334735 104.11039039 -85.51904297 135.52514648 C-86.81337647 136.96396297 -88.11105122 138.39978099 -89.41210938 139.83251953 C-101.12349174 152.86804385 -110.20053889 168.54686206 -119.76220703 183.17895508 C-128.33180862 196.28767525 -136.91643956 209.36307856 -145.97119141 222.14282227 C-154.45102391 234.2071684 -162.43764395 246.61188775 -170.50341797 258.95483398 C-177.00706091 268.88981867 -183.61804739 278.72740242 -190.47817993 288.420578 C-194.51384999 294.1243225 -198.41990157 299.90068541 -202.20516968 305.77375793 C-205.01876195 310.07969347 -205.01876195 310.07969347 -207.22998047 311.18530273 C-211.16699242 277.96128089 -208.45753741 255.75095763 -187.67192078 228.99038696 C-185.76144191 226.57640657 -183.8245188 224.18577179 -181.8828125 221.796875 C-176.70293686 215.36614018 -172.26929849 208.47216385 -167.77856445 201.55282593 C-164.96848316 197.25668656 -162.0833777 193.01111758 -159.20654297 188.75952148 C-157.98768728 186.9542543 -156.76893798 185.14891527 -155.55029297 183.34350586 C-153.70606342 180.6130026 -151.86162619 177.88263977 -150.01708984 175.15234375 C-143.40325238 165.36101169 -136.80346383 155.56112053 -130.25732422 145.72436523 C-125.428714 138.46868389 -120.57405021 131.23126631 -115.69482422 124.00952148 C-114.76331543 122.63068031 -114.76331543 122.63068031 -113.81298828 121.22398376 C-111.28575928 117.48425077 -108.75769557 113.74508463 -106.22827148 110.00683594 C-104.34090349 107.2168862 -102.45525541 104.42578033 -100.56982422 101.63452148 C-100.00520981 100.8011174 -99.4405954 99.96771332 -98.85887146 99.10905457 C-98.32383499 98.316548 -97.78879852 97.52404144 -97.23754883 96.70751953 C-96.77569687 96.02473434 -96.31384491 95.34194916 -95.83799744 94.63847351 C-95.30735184 93.82892715 -94.77670624 93.0193808 -94.22998047 92.18530273 C-93.59796298 91.31285636 -93.59796298 91.31285636 -92.95317745 90.42278481 C-89.48967182 85.39886767 -88.50072357 81.70848718 -88.57055664 75.65795898 C-88.56007294 74.84724442 -88.54958923 74.03652985 -88.53878784 73.20124817 C-88.51022898 70.54970113 -88.51630643 67.89947481 -88.52294922 65.24780273 C-88.50982251 63.39833963 -88.4945153 61.54889084 -88.47712708 59.69946289 C-88.43737798 54.853011 -88.42709314 50.00693501 -88.4230957 45.16033936 C-88.41374521 40.20630564 -88.37631968 35.25249104 -88.34130859 30.29858398 C-88.27683554 20.59416705 -88.24351116 10.88991512 -88.22998047 1.18530273 C-58.81824018 0.34908405 -29.42336431 -0.00296899 0 0 Z "
        fill="#1ED0A1"
        transform="translate(469.22998046875,383.814697265625)"
    />
<path
        d="M0 0 C3.75617245 3.41628678 6.31986597 7.27622025 9.0625 11.5 C10.13157482 13.1245131 11.20197913 14.74815175 12.2734375 16.37109375 C13.15854004 17.71276611 13.15854004 17.71276611 14.06152344 19.08154297 C17.7289546 24.60301301 21.46111847 30.08073491 25.1875 35.5625 C26.0090594 36.77187348 26.83059245 37.98126486 27.65209961 39.19067383 C29.70510406 42.2125306 31.75902105 45.23376583 33.81329346 48.25476074 C35.67665453 50.99512728 37.5394406 53.73588465 39.40234375 56.4765625 C42.90010837 61.62172885 46.39912814 66.76604043 49.8984375 71.91015625 C52.03696274 75.05434485 54.17482866 78.19898079 56.3125 81.34375 C57.02656006 82.39393311 57.74062012 83.44411621 58.47631836 84.52612305 C59.89465858 86.61294131 61.31215658 88.70033227 62.72875977 90.78833008 C66.26303981 95.99406709 69.81549267 101.18578528 73.40234375 106.35546875 C74.10214355 107.36843018 74.80194336 108.3813916 75.52294922 109.42504883 C76.85345301 111.34945359 78.18947047 113.27006137 79.53173828 115.1862793 C80.41514893 116.46692261 80.41514893 116.46692261 81.31640625 117.7734375 C81.83662354 118.52028809 82.35684082 119.26713867 82.89282227 120.03662109 C84 122 84 122 84 125 C77.375 129 77.375 129 74 129 C72.51349774 127.11624283 71.264842 125.2794488 70 123.25 C69.10740459 121.86593714 68.21268561 120.48324259 67.31640625 119.1015625 C66.80223145 118.30524414 66.28805664 117.50892578 65.75830078 116.68847656 C62.62174548 111.89262166 59.38764755 107.16242992 56.1630249 102.42556763 C54.92412885 100.60535482 53.68670005 98.78415302 52.44970703 96.96264648 C49.9675216 93.30771671 47.48386791 89.65378649 45 86 C44.24982938 84.89632696 43.49966638 83.79264874 42.74951172 82.68896484 C38.53183093 76.48402501 34.31265508 70.28010338 30.09277344 64.07666016 C27.98085752 60.97185796 25.86927041 57.86683243 23.7578125 54.76171875 C23.05398438 53.72708496 22.35015625 52.69245117 21.625 51.62646484 C20.21971154 49.55889545 18.81603799 47.49022743 17.4140625 45.42041016 C14.08963591 40.51672588 10.74913194 35.62645213 7.35040283 30.77401733 C5.73934104 28.47176578 4.1375086 26.16316865 2.53637695 23.85400391 C1.39715783 22.21929511 0.24459595 20.59391072 -0.90820312 18.96875 C-1.59076172 17.98261719 -2.27332031 16.99648438 -2.9765625 15.98046875 C-3.58580566 15.11317139 -4.19504883 14.24587402 -4.82275391 13.35229492 C-6 11 -6 11 -5.76342773 8.80883789 C-4.88201453 6.72044952 -3.79707018 5.06276025 -2.4375 3.25 C-1.98246094 2.63640625 -1.52742188 2.0228125 -1.05859375 1.390625 C-0.70925781 0.93171875 -0.35992187 0.4728125 0 0 Z "
        fill="#1ED0A0"
        transform="translate(491,437)"
    />
</svg>
